<svg width="150" height="74" viewBox="0 0 150 74" fill="none" xmlns="http://www.w3.org/2000/svg">
<rect x="0.463715" y="0.223969" width="149.073" height="73.0137" rx="4.2554" fill="url(#paint0_linear_279_34)" stroke="white" stroke-width="0.447937"/>
<rect x="2.23975" y="29.2651" width="1.49312" height="14.9312" rx="0.746562" fill="#D9D9D9"/>
<line x1="75.9233" y1="31.5059" x2="75.7779" y2="0.000991606" stroke="white" stroke-opacity="0.5" stroke-width="0.447937"/>
<circle cx="76.0748" cy="37.1041" r="5.59921" fill="url(#paint1_linear_279_34)"/>
<circle cx="76.0748" cy="37.1041" r="5.37525" stroke="white" stroke-opacity="0.5" stroke-width="0.447937"/>
<line opacity="0.5" x1="75.851" y1="73.4619" x2="75.851" y2="42.7036" stroke="white" stroke-width="0.447937"/>
<ellipse cx="103.25" cy="36.7308" rx="2.16503" ry="2.01572" fill="#D9D9D9"/>
<path d="M105.34 36.7308C105.34 37.7979 104.409 38.6719 103.25 38.6719C102.09 38.6719 101.159 37.7979 101.159 36.7308C101.159 35.6637 102.09 34.7897 103.25 34.7897C104.409 34.7897 105.34 35.6637 105.34 36.7308Z" stroke="#716EA7" stroke-opacity="0.5" stroke-width="0.149312"/>
<rect x="146.267" y="29.2651" width="1.49312" height="14.9312" rx="0.746562" fill="#D9D9D9"/>
<defs>
<linearGradient id="paint0_linear_279_34" x1="75.0001" y1="0" x2="75.0001" y2="73.4617" gradientUnits="userSpaceOnUse">
<stop stop-color="#716EA7"/>
<stop offset="1" stop-color="#5586A8"/>
</linearGradient>
<linearGradient id="paint1_linear_279_34" x1="76.0748" y1="31.5049" x2="76.0748" y2="42.7033" gradientUnits="userSpaceOnUse">
<stop stop-color="#716EA7"/>
<stop offset="1" stop-color="#5586A8"/>
</linearGradient>
</defs>
</svg>
